<svg width="121" height="40" viewBox="0 0 121 40" fill="none" xmlns="http://www.w3.org/2000/svg">
<path d="M20.3139 0C9.09442 0 0.000244141 8.95461 0.000244141 20C0.000244141 31.0454 9.09442 40 20.3139 40C31.5334 40 40.6276 31.0454 40.6276 20C40.6276 8.95461 31.5321 0 20.3139 0ZM22.2226 16.1786H21.9182L21.7149 17.0772L20.8017 21.4701L20.5984 22.6676L19.7876 26.6605L18.6724 31.7512C16.4421 31.7512 14.4137 30.2532 13.9073 28.0574C13.8063 27.7584 13.8063 27.3583 13.8063 26.9595C13.8063 26.6605 13.8063 26.2604 13.9073 25.9613L14.1107 25.0628L14.3141 23.8652L15.5303 18.3744L16.0367 16.1786H9.85204C10.8662 12.8836 13.9073 10.6878 17.4562 10.6878H29.8268C28.8126 13.9829 25.7715 16.2783 22.2226 16.1786Z" fill="#516AE6"/>
<path d="M55.4717 21.058L54.6902 25.2888C54.5918 25.9613 54.6902 26.3468 55.178 26.5382C55.5688 26.7309 56.3503 26.7309 57.5213 26.6339L56.8381 30.9603C54.104 31.3445 52.1501 31.056 50.9778 30.095C49.8055 29.2298 49.5131 27.5949 49.9038 25.3831L50.6854 21.0567H48.5361L49.3177 16.4418H51.467L51.9548 13.846L57.0335 12.4038L56.252 16.4418H59.2798L58.4983 21.0567H55.4704L55.4717 21.058Z" fill="#516AE6"/>
<path d="M67.6788 16.1547C69.9251 16.1547 71.5852 16.9242 72.8545 18.3664C74.1239 19.8085 74.5147 21.6361 74.1239 23.7508C74.0269 24.3277 73.8315 24.9046 73.6361 25.5771H63.577C63.8694 26.7308 64.7493 27.3077 66.4094 27.3077C67.5817 27.3077 68.5587 26.9236 69.3389 26.2497L72.4638 29.0383C70.8036 30.5761 68.6544 31.3457 66.1157 31.3457C63.577 31.3457 61.6231 30.5761 60.3537 29.0383C59.0844 27.5004 58.5952 25.6728 58.986 23.4611C59.3768 21.3451 60.3537 19.6145 62.0139 18.1723C63.577 16.8259 65.5295 16.1533 67.6788 16.1533V16.1547ZM64.1631 22.116H69.7297C69.6313 20.7695 68.8511 20.097 67.3864 20.097C66.0186 20.1927 64.9447 20.7695 64.1631 22.116Z" fill="#516AE6"/>
<path d="M73.769 30.9618L75.4292 21.7307L77.4801 9.90381L82.3635 9.80811L80.2155 21.8278L78.5554 30.9618H73.7704H73.769Z" fill="#516AE6"/>
<path d="M79.6174 30.9614L82.2545 16.5386H87.1379L84.5008 30.9614H79.6174Z" fill="#516AE6"/>
<path d="M87.4888 13.6729C86.5743 15.1004 85.1309 15.6361 83.9346 14.8705C82.7397 14.1049 82.5111 12.3278 83.4255 10.9002C84.34 9.47271 85.7835 9.06998 86.9797 9.83558C88.1747 10.6012 88.4033 12.2454 87.4888 13.6729Z" fill="#516AE6"/>
<path d="M98.3787 16.5386H103.75L95.6432 30.9614H90.5645L88.1228 16.5386H93.0062L94.2755 24.7116L98.3773 16.5386H98.3787Z" fill="#516AE6"/>
<path d="M115.359 16.5386H120.925L113.503 30.5773C112.234 32.9804 110.769 34.6153 109.206 35.5776C107.546 36.5386 105.69 36.924 103.541 36.7313L104.323 32.2121C105.397 32.2121 106.178 32.1164 106.666 31.828C107.154 31.5396 107.643 31.0584 108.131 30.3859L104.81 16.5399H109.986L111.549 24.9057L115.359 16.5399V16.5386Z" fill="#516AE6"/>
</svg>
